<svg xmlns="http://www.w3.org/2000/svg" width="26" height="26" viewBox="0 0 26 26">
    <g fill="none" fill-rule="evenodd">
        <rect width="26" height="26" fill="#444" rx="13"/>
        <path fill="#FFF" d="M13 21c-4.411 0-8-3.589-8-8s3.589-8 8-8 8 3.589 8 8-3.589 8-8 8zm-2.2-8.4a.8.8 0 1 0 0-1.6.8.8 0 0 0 0 1.6zm5.8-.8a.8.8 0 1 0-1.6 0 .8.8 0 0 0 1.6 0zm-7.57 4.718c-.082.176.01.379.205.453.192.072.417-.01.499-.186.59-1.271 1.951-2.093 3.466-2.093 1.515 0 2.876.822 3.466 2.094.082.175.304.257.5.185.194-.074.286-.277.204-.453C16.66 14.988 15.024 14 13.2 14c-1.824 0-3.46.989-4.17 2.518z"/>
    </g>
</svg>
