<svg xmlns="http://www.w3.org/2000/svg" width="26" height="26" viewBox="0 0 26 26">
    <g fill="none" fill-rule="evenodd">
        <rect width="26" height="26" fill="#E75137" rx="13"/>
        <path fill="#FFF" d="M13 21c-4.411 0-8-3.589-8-8s3.589-8 8-8 8 3.589 8 8-3.589 8-8 8zm-4.17-6.515c.71 1.55 2.346 2.55 4.17 2.55 1.824 0 3.46-1 4.17-2.55.082-.178-.01-.383-.204-.458-.196-.074-.418.01-.5.187-.59 1.288-1.951 2.12-3.466 2.12-1.515 0-2.877-.832-3.466-2.12-.082-.177-.307-.26-.5-.187-.194.075-.286.28-.204.458zm1.77-2.3a.8.8 0 1 0 0-1.6.8.8 0 0 0 0 1.6zm5.6-.8a.8.8 0 1 0-1.6 0 .8.8 0 0 0 1.6 0z"/>
    </g>
</svg>
